HIERARCHY
ROOT Hips
{
	OFFSET 0.000000 0.000000 0.000000
	CHANNELS 6 Xposition Yposition Zposition Xrotation Yrotation Zrotation
	JOINT LeftUpLeg_virtual
	{
		OFFSET 0.000000 0.000000 0.000000
		CHANNELS 3 Xrotation Yrotation Zrotation
		JOINT LeftUpLeg
		{
			OFFSET 13.026900 -6.336304 -1.092800
			CHANNELS 3 Xrotation Yrotation Zrotation
			JOINT LeftLeg
			{
				OFFSET 0.524474 -46.096886 9.782700
				CHANNELS 3 Xrotation Yrotation Zrotation
				JOINT LeftFoot
				{
					OFFSET -0.524474 -53.427422 -12.948200
					CHANNELS 3 Xrotation Yrotation Zrotation
					JOINT LeftToeBase
					{
						OFFSET 0.192200 -14.009700 16.364100
						CHANNELS 3 Xrotation Yrotation Zrotation
						JOINT LeftToe_End
						{
							OFFSET -1.784700 -0.561700 9.474800
							CHANNELS 3 Xrotation Yrotation Zrotation
							End Site
							{
								OFFSET 0 0 0
							}
						}
					}
				}
			}
		}
	}
	JOINT RightUpLeg_virtual
	{
		OFFSET 0.000000 0.000000 0.000000
		CHANNELS 3 Xrotation Yrotation Zrotation
		JOINT RightUpLeg
		{
			OFFSET -12.883000 -6.336304 -1.092800
			CHANNELS 3 Xrotation Yrotation Zrotation
			JOINT RightLeg
			{
				OFFSET -0.524587 -46.096825 9.782800
				CHANNELS 3 Xrotation Yrotation Zrotation
				JOINT RightFoot
				{
					OFFSET 0.524587 -53.427383 -12.948300
					CHANNELS 3 Xrotation Yrotation Zrotation
					JOINT RightToeBase
					{
						OFFSET -0.192200 -14.009700 16.364100
						CHANNELS 3 Xrotation Yrotation Zrotation
						JOINT RightToe_End
						{
							OFFSET 1.784700 -0.561700 9.474800
							CHANNELS 3 Xrotation Yrotation Zrotation
							End Site
							{
								OFFSET 0 0 0
							}
						}
					}
				}
			}
		}
	}
	JOINT Spine_virtual
	{
		OFFSET 0.000000 0.000000 0.000000
		CHANNELS 3 Xrotation Yrotation Zrotation
		JOINT Spine
		{
			OFFSET 0.072000 7.257294 -0.789700
			CHANNELS 3 Xrotation Yrotation Zrotation
			JOINT Spine1
			{
				OFFSET 0.000000 12.508769 -0.658067
				CHANNELS 3 Xrotation Yrotation Zrotation
				JOINT Spine1_split
				{
					OFFSET 0.000000 12.508769 -0.658067
					CHANNELS 3 Xrotation Yrotation Zrotation
					JOINT Spine2
					{
						OFFSET 0.000000 12.508769 -0.658067
						CHANNELS 3 Xrotation Yrotation Zrotation
						JOINT Neck_virtual
						{
							OFFSET 0.000000 0.000000 0.000000
							CHANNELS 3 Xrotation Yrotation Zrotation
							JOINT Neck
							{
								OFFSET 0.000000 14.033295 7.520400
								CHANNELS 3 Xrotation Yrotation Zrotation
								JOINT Head
								{
									OFFSET 0.000000 8.198502 5.703100
									CHANNELS 3 Xrotation Yrotation Zrotation
									JOINT HeadTop_End
									{
										OFFSET 0.000000 17.760803 13.332701
										CHANNELS 3 Xrotation Yrotation Zrotation
										End Site
										{
											OFFSET 0 0 0
										}
									}
								}
							}
						}
						JOINT LeftShoulder_virtual
						{
							OFFSET 0.000000 0.000000 0.000000
							CHANNELS 3 Xrotation Yrotation Zrotation
							JOINT LeftShoulder
							{
								OFFSET 6.292450 5.785301 -0.669000
								CHANNELS 3 Xrotation Yrotation Zrotation
								JOINT LeftShoulder_split
								{
									OFFSET 6.292450 5.785301 -0.669000
									CHANNELS 3 Xrotation Yrotation Zrotation
									JOINT LeftArm
									{
										OFFSET 13.907140 -6.093903 1.965100
										CHANNELS 3 Xrotation Yrotation Zrotation
										JOINT LeftForeArm
										{
											OFFSET 34.140198 0.000000 0.000000
											CHANNELS 3 Xrotation Yrotation Zrotation
											JOINT LeftHand
											{
												OFFSET 40.960209 0.000000 0.000000
												CHANNELS 3 Xrotation Yrotation Zrotation
												End Site
												{
													OFFSET 0 0 0
												}
											}
										}
									}
								}
							}
						}
						JOINT RightShoulder_virtual
						{
							OFFSET 0.000000 0.000000 0.000000
							CHANNELS 3 Xrotation Yrotation Zrotation
							JOINT RightShoulder
							{
								OFFSET -6.292450 5.785301 -0.669000
								CHANNELS 3 Xrotation Yrotation Zrotation
								JOINT RightShoulder_split
								{
									OFFSET -6.292450 5.785301 -0.669000
									CHANNELS 3 Xrotation Yrotation Zrotation
									JOINT RightArm
									{
										OFFSET -13.907140 -6.093903 1.965100
										CHANNELS 3 Xrotation Yrotation Zrotation
										JOINT RightForeArm
										{
											OFFSET -34.140198 0.000000 0.000000
											CHANNELS 3 Xrotation Yrotation Zrotation
											JOINT RightHand
											{
												OFFSET -40.960209 0.000000 0.000000
												CHANNELS 3 Xrotation Yrotation Zrotation
												End Site
												{
													OFFSET 0 0 0
												}
											}
										}
									}
								}
							}
						}
					}
				}
			}
		}
	}
}
MOTION
Frames: 4
Frame Time: 0.03333333
-0.492042 253.891083 1.841114 0.000000 0.000000 0.000000 -4.544539 4.733297 5.125952 -6.944435 16.518159 6.484846 12.079388 -7.757900 -0.249723 -2.318630 0.335292 -5.655922 -0.000001 -0.000003 0.000003 0.000000 0.000000 0.000000 -4.544539 4.733297 5.125952 -1.129968 -10.536990 -5.364265 19.662661 5.673147 0.257384 -23.257503 -1.015697 3.869664 0.000006 0.000001 -0.000000 0.000000 0.000000 0.000000 -4.544539 4.733297 5.125952 4.633687 -0.608136 0.398754 9.932385 -0.680238 3.008161 0.000000 0.000000 0.000000 0.000000 0.000000 0.000000 9.936598 -0.617924 3.002059 -0.494621 1.768444 -5.437057 5.110707 1.939358 -6.547526 0.000000 0.000000 0.000000 9.936598 -0.617924 3.002059 -0.221753 14.341900 -11.465857 0.000000 0.000000 0.000000 4.441012 -10.208760 -60.164486 -0.000005 -50.304446 -0.000021 0.000000 0.000000 0.000000 9.936598 -0.617924 3.002059 1.119628 3.440114 7.346928 0.000000 0.000000 0.000000 -5.089676 8.252977 56.488434 0.000016 38.764547 -0.000017 0.000000 0.000000 0.000000 
-0.508496 253.735977 1.710258 0.000000 0.000000 0.000000 -4.032721 4.779605 5.034133 -7.955453 16.229055 6.627976 12.849991 -7.579335 -0.253488 -2.782746 0.383786 -5.574036 -0.000000 0.000005 0.000003 0.000000 0.000000 0.000000 -4.032721 4.779605 5.034133 -1.812099 -10.503927 -5.319640 19.926916 5.661914 0.258268 -23.624707 -1.023919 3.750031 0.000004 -0.000000 -0.000001 0.000000 0.000000 0.000000 -4.032721 4.779605 5.034133 4.573601 -0.616189 0.470946 9.837532 -0.656224 2.999172 0.000000 0.000000 0.000000 0.000000 0.000000 0.000000 9.842312 -0.594124 2.990731 -0.552500 1.913021 -5.689796 5.267438 2.253985 -6.652773 0.000000 0.000000 0.000000 9.842312 -0.594124 2.990731 -0.217714 14.595756 -11.694880 0.000000 0.000000 0.000000 4.265770 -10.605524 -59.786306 -0.000004 -50.764104 -0.000021 0.000000 0.000000 0.000000 9.842312 -0.594124 2.990731 1.104808 3.548998 6.940644 0.000000 0.000000 0.000000 -3.653386 10.119992 55.385246 0.000006 39.770737 -0.000016 0.000000 0.000000 0.000000 
-0.486560 253.482697 1.534733 0.000000 0.000000 0.000000 -3.481478 4.930440 4.922300 -9.313146 15.974455 6.887487 14.149514 -6.193733 -0.222547 -3.463639 0.503003 -5.762335 -0.000000 -0.000009 -0.000000 0.000000 0.000000 0.000000 -3.481478 4.930440 4.922300 -2.693414 -10.457235 -5.289619 20.472230 5.571829 0.255322 -24.116819 -1.038807 3.615603 0.000002 -0.000001 -0.000001 0.000000 0.000000 0.000000 -3.481478 4.930440 4.922300 4.510521 -0.638096 0.555496 9.747389 -0.660640 2.989694 0.000000 0.000000 0.000000 0.000000 0.000000 0.000000 9.752283 -0.598474 2.981115 -0.524613 2.045887 -5.949946 5.185574 2.561493 -6.667640 0.000000 0.000000 0.000000 9.752283 -0.598474 2.981115 -0.217906 14.614127 -11.691991 0.000000 0.000000 0.000000 4.068847 -10.818484 -59.539975 0.000001 -51.290028 -0.000011 0.000000 0.000000 0.000000 9.752283 -0.598474 2.981115 1.097555 3.801373 6.436560 0.000000 0.000000 0.000000 -1.977652 12.089237 53.953918 -0.000004 41.267641 0.000026 0.000000 0.000000 0.000000 
-0.440213 253.116669 1.269386 0.000000 0.000000 0.000000 -2.984712 5.218490 4.798561 -10.977512 15.864887 7.165428 16.099080 -3.468619 -0.130812 -4.211164 0.694895 -6.224842 -0.000000 -0.000007 0.000002 0.000000 0.000000 0.000000 -2.984712 5.218490 4.798561 -3.746684 -10.382438 -5.275850 21.369285 5.322064 0.244318 -24.698997 -1.072022 3.510678 -0.000001 -0.000001 0.000001 0.000000 0.000000 0.000000 -2.984712 5.218490 4.798561 4.465103 -0.680157 0.629717 9.704060 -0.709359 2.967784 0.000000 0.000000 0.000000 0.000000 0.000000 0.000000 9.708649 -0.646168 2.961691 -0.488490 2.146772 -6.165093 4.810438 2.804506 -6.514260 0.000000 0.000000 0.000000 9.708649 -0.646168 2.961691 -0.232236 14.387112 -11.379464 0.000000 0.000000 0.000000 3.915812 -10.972411 -59.276377 0.000013 -51.932196 0.000002 0.000000 0.000000 0.000000 9.708649 -0.646168 2.961691 1.096148 4.154825 5.880133 0.000000 0.000000 0.000000 -0.334857 14.033233 52.408820 -0.000012 43.158668 0.000030 0.000000 0.000000 0.000000 
